<svg xmlns="http://www.w3.org/2000/svg" viewBox="0 0 64 64">
  <defs>
    <linearGradient id="bg" x1="10" y1="8" x2="54" y2="56" gradientUnits="userSpaceOnUse">
      <stop offset="0" stop-color="#16130e" />
      <stop offset="1" stop-color="#090909" />
    </linearGradient>
    <linearGradient id="gold" x1="18" y1="14" x2="46" y2="50" gradientUnits="userSpaceOnUse">
      <stop offset="0" stop-color="#d8bb88" />
      <stop offset="1" stop-color="#c9a76a" />
    </linearGradient>
  </defs>
  <rect width="64" height="64" rx="14" fill="url(#bg)" />
  <rect x="5" y="5" width="54" height="54" rx="10" fill="none" stroke="rgba(201,167,106,0.35)" />
  <path d="M43.7 18.5c-2.4-2.1-5.8-3.2-10.1-3.2-7.9 0-13 4-15.2 12.1l5.8 1.4c1.6-5.2 4.8-7.8 9.5-7.8 4.3 0 6.5 1.5 6.5 4.4 0 1.7-.8 3.1-2.4 4.1-1.1.7-3.1 1.6-6 2.5-4 1.2-6.8 2.6-8.4 4.2-1.7 1.7-2.6 4-2.6 6.9 0 3.4 1.2 6.2 3.6 8.2 2.3 2 5.4 3 9.3 3 7.6 0 12.7-3.8 15.2-11.5l-5.7-1.7c-1.7 5-4.8 7.5-9.2 7.5-4.6 0-6.9-1.7-6.9-5 0-1.6.6-2.9 1.9-3.9 1.3-.9 3.5-1.9 6.7-2.8 4.4-1.3 7.3-2.7 8.9-4.2 1.8-1.7 2.7-4 2.7-6.9 0-3.4-1.2-6.1-3.6-8.3Z" fill="url(#gold)" />
  <circle cx="48.5" cy="16" r="2.5" fill="#f2ece2" opacity="0.85" />
</svg>
